<?xml version="1.0" standalone="no"?>
<!DOCTYPE svg PUBLIC "-//W3C//DTD SVG 1.1//EN"
   "http://www.w3.org/Graphics/SVG/1.1/DTD/svg11.dtd">
<svg width="968.5" height="1364.99" version="1.1"
   xmlns="http://www.w3.org/2000/svg"
   xmlns:xlink="http://www.w3.org/1999/xlink">
<defs>
<path id="bottoms" d="M 0 0 l 22.5 -38.9711 m 45 0 l 22.5 38.9711 m 45 0 l 22.5 -38.9711 m 45 0 l 22.5 38.9711 m 45 0 l 22.5 -38.9711 m 45 0 l 22.5 38.9711 m 45 0 l 22.5 -38.9711 m 45 0 l 22.5 38.9711 m 45 0 l 22.5 -38.9711 m 45 0 l 22.5 38.9711 m 45 0 l 22.5 -38.9711 m 45 0 l 22.5 38.9711 m 45 0 l 22.5 -38.9711 m 45 0" />
<path id="tops" d="M 0 0 l 45 0 22.5 38.9711 45 0 22.5 -38.9711 45 0 22.5 38.9711 45 0 22.5 -38.9711 45 0 22.5 38.9711 45 0 22.5 -38.9711 45 0 22.5 38.9711 45 0 22.5 -38.9711 45 0 22.5 38.9711 45 0 22.5 -38.9711 45 0 22.5 38.9711 45 0 22.5 -38.9711 45 0 22.5 38.9711 45 0" />
<path id="outline" d="M 0 0 l 22.5 -38.9711 45 0 22.5 38.9711 45 0 22.5 -38.9711 45 0 22.5 38.9711 45 0 22.5 -38.9711 45 0 22.5 38.9711 45 0 22.5 -38.9711 45 0 22.5 38.9711 45 0 22.5 -38.9711 45 0 22.5 38.9711 45 0 22.5 -38.9711 45 0 22.5 38.9711 45 0 22.5 -38.9711 45 0 22.5 38.9711 45 0 22.5 38.9711 -22.5 38.9711 22.5 38.9711 -22.5 38.9711 22.5 38.9711 -22.5 38.9711 22.5 38.9711 -22.5 38.9711 22.5 38.9711 -22.5 38.9711 22.5 38.9711 -22.5 38.9711 22.5 38.9711 -22.5 38.9711 22.5 38.9711 -22.5 38.9711 22.5 38.9711 -22.5 38.9711 22.5 38.9711 -22.5 38.9711 22.5 38.9711 -22.5 38.9711 22.5 38.9711 -22.5 38.9711 22.5 38.9711 -22.5 38.9711 22.5 38.9711 -22.5 38.9711 22.5 38.9711 -22.5 38.9711 22.5 38.9711 -22.5 38.9711 22.5 38.9711 -22.5 38.9711 -45 0 -22.5 -38.9711 -45 0 -22.5 38.9711 -45 0 -22.5 -38.9711 -45 0 -22.5 38.9711 -45 0 -22.5 -38.9711 -45 0 -22.5 38.9711 -45 0 -22.5 -38.9711 -45 0 -22.5 38.9711 -45 0 -22.5 -38.9711 -45 0 -22.5 38.9711 -45 0 -22.5 -38.9711 -45 0 -22.5 38.9711 -45 0 -22.5 -38.9711 -45 0 -22.5 -38.9711 22.5 -38.9711 -22.5 -38.9711 22.5 -38.9711 -22.5 -38.9711 22.5 -38.9711 -22.5 -38.9711 22.5 -38.9711 -22.5 -38.9711 22.5 -38.9711 -22.5 -38.9711 22.5 -38.9711 -22.5 -38.9711 22.5 -38.9711 -22.5 -38.9711 22.5 -38.9711 -22.5 -38.9711 22.5 -38.9711 -22.5 -38.9711 22.5 -38.9711 -22.5 -38.9711 22.5 -38.9711 -22.5 -38.9711 22.5 -38.9711 -22.5 -38.9711 22.5 -38.9711 -22.5 -38.9711 22.5 -38.9711 -22.5 -38.9711 22.5 -38.9711 -22.5 -38.9711 22.5 -38.9711 z" />
</defs>
<g transform="translate(0.5,0.5)">
<g id="grid" style="fill: none; stroke: #7a7a7a; stroke-opacity: 1; stroke-width: 1; ">
<use x="0" y="38.9711" xlink:href="#outline" />
<use x="67.5" y="77.9423" xlink:href="#bottoms" />
<use x="22.5" y="77.9423" xlink:href="#tops" />
<use x="67.5" y="155.885" xlink:href="#bottoms" />
<use x="22.5" y="155.885" xlink:href="#tops" />
<use x="67.5" y="233.827" xlink:href="#bottoms" />
<use x="22.5" y="233.827" xlink:href="#tops" />
<use x="67.5" y="311.769" xlink:href="#bottoms" />
<use x="22.5" y="311.769" xlink:href="#tops" />
<use x="67.5" y="389.711" xlink:href="#bottoms" />
<use x="22.5" y="389.711" xlink:href="#tops" />
<use x="67.5" y="467.654" xlink:href="#bottoms" />
<use x="22.5" y="467.654" xlink:href="#tops" />
<use x="67.5" y="545.596" xlink:href="#bottoms" />
<use x="22.5" y="545.596" xlink:href="#tops" />
<use x="67.5" y="623.538" xlink:href="#bottoms" />
<use x="22.5" y="623.538" xlink:href="#tops" />
<use x="67.5" y="701.481" xlink:href="#bottoms" />
<use x="22.5" y="701.481" xlink:href="#tops" />
<use x="67.5" y="779.423" xlink:href="#bottoms" />
<use x="22.5" y="779.423" xlink:href="#tops" />
<use x="67.5" y="857.365" xlink:href="#bottoms" />
<use x="22.5" y="857.365" xlink:href="#tops" />
<use x="67.5" y="935.307" xlink:href="#bottoms" />
<use x="22.5" y="935.307" xlink:href="#tops" />
<use x="67.5" y="1013.25" xlink:href="#bottoms" />
<use x="22.5" y="1013.25" xlink:href="#tops" />
<use x="67.5" y="1091.19" xlink:href="#bottoms" />
<use x="22.5" y="1091.19" xlink:href="#tops" />
<use x="67.5" y="1169.13" xlink:href="#bottoms" />
<use x="22.5" y="1169.13" xlink:href="#tops" />
<use x="67.5" y="1247.08" xlink:href="#bottoms" />
<use x="22.5" y="1247.08" xlink:href="#tops" />
<use x="67.5" y="1325.02" xlink:href="#bottoms" />
</g>
<g id="coordinates" style="fill: #008080; fill-opacity: 1; font-family: sans; font-size: 10px; text-anchor: middle; ">
<text x="45" y="10.9711">3701</text>
<text x="112.5" y="49.9423">3801</text>
<text x="180" y="10.9711">3901</text>
<text x="247.5" y="49.9423">4001</text>
<text x="315" y="10.9711">4101</text>
<text x="382.5" y="49.9423">4201</text>
<text x="450" y="10.9711">4301</text>
<text x="517.5" y="49.9423">4401</text>
<text x="585" y="10.9711">4501</text>
<text x="652.5" y="49.9423">4601</text>
<text x="720" y="10.9711">4701</text>
<text x="787.5" y="49.9423">4801</text>
<text x="855" y="10.9711">4901</text>
<text x="922.5" y="49.9423">5001</text>
<text x="45" y="88.9134">3702</text>
<text x="112.5" y="127.885">3802</text>
<text x="180" y="88.9134">3902</text>
<text x="247.5" y="127.885">4002</text>
<text x="315" y="88.9134">4102</text>
<text x="382.5" y="127.885">4202</text>
<text x="450" y="88.9134">4302</text>
<text x="517.5" y="127.885">4402</text>
<text x="585" y="88.9134">4502</text>
<text x="652.5" y="127.885">4602</text>
<text x="720" y="88.9134">4702</text>
<text x="787.5" y="127.885">4802</text>
<text x="855" y="88.9134">4902</text>
<text x="922.5" y="127.885">5002</text>
<text x="45" y="166.856">3703</text>
<text x="112.5" y="205.827">3803</text>
<text x="180" y="166.856">3903</text>
<text x="247.5" y="205.827">4003</text>
<text x="315" y="166.856">4103</text>
<text x="382.5" y="205.827">4203</text>
<text x="450" y="166.856">4303</text>
<text x="517.5" y="205.827">4403</text>
<text x="585" y="166.856">4503</text>
<text x="652.5" y="205.827">4603</text>
<text x="720" y="166.856">4703</text>
<text x="787.5" y="205.827">4803</text>
<text x="855" y="166.856">4903</text>
<text x="922.5" y="205.827">5003</text>
<text x="45" y="244.798">3704</text>
<text x="112.5" y="283.769">3804</text>
<text x="180" y="244.798">3904</text>
<text x="247.5" y="283.769">4004</text>
<text x="315" y="244.798">4104</text>
<text x="382.5" y="283.769">4204</text>
<text x="450" y="244.798">4304</text>
<text x="517.5" y="283.769">4404</text>
<text x="585" y="244.798">4504</text>
<text x="652.5" y="283.769">4604</text>
<text x="720" y="244.798">4704</text>
<text x="787.5" y="283.769">4804</text>
<text x="855" y="244.798">4904</text>
<text x="922.5" y="283.769">5004</text>
<text x="45" y="322.74">3705</text>
<text x="112.5" y="361.711">3805</text>
<text x="180" y="322.74">3905</text>
<text x="247.5" y="361.711">4005</text>
<text x="315" y="322.74">4105</text>
<text x="382.5" y="361.711">4205</text>
<text x="450" y="322.74">4305</text>
<text x="517.5" y="361.711">4405</text>
<text x="585" y="322.74">4505</text>
<text x="652.5" y="361.711">4605</text>
<text x="720" y="322.74">4705</text>
<text x="787.5" y="361.711">4805</text>
<text x="855" y="322.74">4905</text>
<text x="922.5" y="361.711">5005</text>
<text x="45" y="400.683">3706</text>
<text x="112.5" y="439.654">3806</text>
<text x="180" y="400.683">3906</text>
<text x="247.5" y="439.654">4006</text>
<text x="315" y="400.683">4106</text>
<text x="382.5" y="439.654">4206</text>
<text x="450" y="400.683">4306</text>
<text x="517.5" y="439.654">4406</text>
<text x="585" y="400.683">4506</text>
<text x="652.5" y="439.654">4606</text>
<text x="720" y="400.683">4706</text>
<text x="787.5" y="439.654">4806</text>
<text x="855" y="400.683">4906</text>
<text x="922.5" y="439.654">5006</text>
<text x="45" y="478.625">3707</text>
<text x="112.5" y="517.596">3807</text>
<text x="180" y="478.625">3907</text>
<text x="247.5" y="517.596">4007</text>
<text x="315" y="478.625">4107</text>
<text x="382.5" y="517.596">4207</text>
<text x="450" y="478.625">4307</text>
<text x="517.5" y="517.596">4407</text>
<text x="585" y="478.625">4507</text>
<text x="652.5" y="517.596">4607</text>
<text x="720" y="478.625">4707</text>
<text x="787.5" y="517.596">4807</text>
<text x="855" y="478.625">4907</text>
<text x="922.5" y="517.596">5007</text>
<text x="45" y="556.567">3708</text>
<text x="112.5" y="595.538">3808</text>
<text x="180" y="556.567">3908</text>
<text x="247.5" y="595.538">4008</text>
<text x="315" y="556.567">4108</text>
<text x="382.5" y="595.538">4208</text>
<text x="450" y="556.567">4308</text>
<text x="517.5" y="595.538">4408</text>
<text x="585" y="556.567">4508</text>
<text x="652.5" y="595.538">4608</text>
<text x="720" y="556.567">4708</text>
<text x="787.5" y="595.538">4808</text>
<text x="855" y="556.567">4908</text>
<text x="922.5" y="595.538">5008</text>
<text x="45" y="634.509">3709</text>
<text x="112.5" y="673.481">3809</text>
<text x="180" y="634.509">3909</text>
<text x="247.5" y="673.481">4009</text>
<text x="315" y="634.509">4109</text>
<text x="382.5" y="673.481">4209</text>
<text x="450" y="634.509">4309</text>
<text x="517.5" y="673.481">4409</text>
<text x="585" y="634.509">4509</text>
<text x="652.5" y="673.481">4609</text>
<text x="720" y="634.509">4709</text>
<text x="787.5" y="673.481">4809</text>
<text x="855" y="634.509">4909</text>
<text x="922.5" y="673.481">5009</text>
<text x="45" y="712.452">3710</text>
<text x="112.5" y="751.423">3810</text>
<text x="180" y="712.452">3910</text>
<text x="247.5" y="751.423">4010</text>
<text x="315" y="712.452">4110</text>
<text x="382.5" y="751.423">4210</text>
<text x="450" y="712.452">4310</text>
<text x="517.5" y="751.423">4410</text>
<text x="585" y="712.452">4510</text>
<text x="652.5" y="751.423">4610</text>
<text x="720" y="712.452">4710</text>
<text x="787.5" y="751.423">4810</text>
<text x="855" y="712.452">4910</text>
<text x="922.5" y="751.423">5010</text>
<text x="45" y="790.394">3711</text>
<text x="112.5" y="829.365">3811</text>
<text x="180" y="790.394">3911</text>
<text x="247.5" y="829.365">4011</text>
<text x="315" y="790.394">4111</text>
<text x="382.5" y="829.365">4211</text>
<text x="450" y="790.394">4311</text>
<text x="517.5" y="829.365">4411</text>
<text x="585" y="790.394">4511</text>
<text x="652.5" y="829.365">4611</text>
<text x="720" y="790.394">4711</text>
<text x="787.5" y="829.365">4811</text>
<text x="855" y="790.394">4911</text>
<text x="922.5" y="829.365">5011</text>
<text x="45" y="868.336">3712</text>
<text x="112.5" y="907.307">3812</text>
<text x="180" y="868.336">3912</text>
<text x="247.5" y="907.307">4012</text>
<text x="315" y="868.336">4112</text>
<text x="382.5" y="907.307">4212</text>
<text x="450" y="868.336">4312</text>
<text x="517.5" y="907.307">4412</text>
<text x="585" y="868.336">4512</text>
<text x="652.5" y="907.307">4612</text>
<text x="720" y="868.336">4712</text>
<text x="787.5" y="907.307">4812</text>
<text x="855" y="868.336">4912</text>
<text x="922.5" y="907.307">5012</text>
<text x="45" y="946.279">3713</text>
<text x="112.5" y="985.25">3813</text>
<text x="180" y="946.279">3913</text>
<text x="247.5" y="985.25">4013</text>
<text x="315" y="946.279">4113</text>
<text x="382.5" y="985.25">4213</text>
<text x="450" y="946.279">4313</text>
<text x="517.5" y="985.25">4413</text>
<text x="585" y="946.279">4513</text>
<text x="652.5" y="985.25">4613</text>
<text x="720" y="946.279">4713</text>
<text x="787.5" y="985.25">4813</text>
<text x="855" y="946.279">4913</text>
<text x="922.5" y="985.25">5013</text>
<text x="45" y="1024.22">3714</text>
<text x="112.5" y="1063.19">3814</text>
<text x="180" y="1024.22">3914</text>
<text x="247.5" y="1063.19">4014</text>
<text x="315" y="1024.22">4114</text>
<text x="382.5" y="1063.19">4214</text>
<text x="450" y="1024.22">4314</text>
<text x="517.5" y="1063.19">4414</text>
<text x="585" y="1024.22">4514</text>
<text x="652.5" y="1063.19">4614</text>
<text x="720" y="1024.22">4714</text>
<text x="787.5" y="1063.19">4814</text>
<text x="855" y="1024.22">4914</text>
<text x="922.5" y="1063.19">5014</text>
<text x="45" y="1102.16">3715</text>
<text x="112.5" y="1141.13">3815</text>
<text x="180" y="1102.16">3915</text>
<text x="247.5" y="1141.13">4015</text>
<text x="315" y="1102.16">4115</text>
<text x="382.5" y="1141.13">4215</text>
<text x="450" y="1102.16">4315</text>
<text x="517.5" y="1141.13">4415</text>
<text x="585" y="1102.16">4515</text>
<text x="652.5" y="1141.13">4615</text>
<text x="720" y="1102.16">4715</text>
<text x="787.5" y="1141.13">4815</text>
<text x="855" y="1102.16">4915</text>
<text x="922.5" y="1141.13">5015</text>
<text x="45" y="1180.11">3716</text>
<text x="112.5" y="1219.08">3816</text>
<text x="180" y="1180.11">3916</text>
<text x="247.5" y="1219.08">4016</text>
<text x="315" y="1180.11">4116</text>
<text x="382.5" y="1219.08">4216</text>
<text x="450" y="1180.11">4316</text>
<text x="517.5" y="1219.08">4416</text>
<text x="585" y="1180.11">4516</text>
<text x="652.5" y="1219.08">4616</text>
<text x="720" y="1180.11">4716</text>
<text x="787.5" y="1219.08">4816</text>
<text x="855" y="1180.11">4916</text>
<text x="922.5" y="1219.08">5016</text>
<text x="45" y="1258.05">3717</text>
<text x="112.5" y="1297.02">3817</text>
<text x="180" y="1258.05">3917</text>
<text x="247.5" y="1297.02">4017</text>
<text x="315" y="1258.05">4117</text>
<text x="382.5" y="1297.02">4217</text>
<text x="450" y="1258.05">4317</text>
<text x="517.5" y="1297.02">4417</text>
<text x="585" y="1258.05">4517</text>
<text x="652.5" y="1297.02">4617</text>
<text x="720" y="1258.05">4717</text>
<text x="787.5" y="1297.02">4817</text>
<text x="855" y="1258.05">4917</text>
<text x="922.5" y="1297.02">5017</text>
</g>
</g>
</svg>
